C:\Users\r0593348\3dpredictsim\Results\Batchsim_tmt_linear\Pog_s1_tmt_bCst_d02_k2000_ig24_pas_GRF.mot
nRows=20
nColumns=19

name C:\Users\r0593348\3dpredictsim\Results\Batchsim_tmt_linear\Pog_s1_tmt_bCst_d02_k2000_ig24_pas_GRF.mot
datacolumns 19
datarows 20
range 0.5517265028 0.7613825739
endheader
time 	ground_force_vx	ground_force_vy	ground_force_vz	ground_force_px	ground_force_py	ground_force_pz	1_ground_force_vx	1_ground_force_vy	1_ground_force_vz	1_ground_force_px	1_ground_force_py	1_ground_force_pz	ground_torque_x	ground_torque_y	ground_torque_z	1_ground_torque_x	1_ground_torque_y	1_ground_torque_z
        0.5517265028	       98.7529707364	      490.5124816468	        3.8273756031	        0.3732195415	        0.0000000000	        0.0336475435	      -79.4760769362	       64.6624517610	      -29.7106480916	        0.8561434638	        0.0000000000	       -0.0382828498	        0.0000000000	        0.0000000000	        0.0000000000	        0.0000000000	        0.0000000000	        0.0000000000	
        0.5627610329	       80.3205103690	      408.6438212343	        8.5539649283	        0.3769353807	        0.0000000000	        0.0325272060	     -126.3793064797	      142.5392914222	      -73.7843975558	        0.8638297068	        0.0000000000	       -0.0358925468	        0.0000000000	        0.0000000000	        0.0000000000	        0.0000000000	        0.0000000000	        0.0000000000	
        0.5737955629	       61.0565401227	      319.8203182881	        9.5421889814	        0.3826686922	        0.0000000000	        0.0303304486	      -51.6207603234	      286.8235828990	      -33.8586181447	        0.8699465248	        0.0000000000	       -0.0334887915	        0.0000000000	        0.0000000000	        0.0000000000	        0.0000000000	        0.0000000000	        0.0000000000	
        0.5848300930	       31.0163437312	      213.9013575987	        6.0295356400	        0.3937865280	        0.0000000000	        0.0250934625	      -45.0127901683	      456.6979270218	       -3.8843057589	        0.8743483079	        0.0000000000	       -0.0336654041	        0.0000000000	        0.0000000000	        0.0000000000	        0.0000000000	        0.0000000000	        0.0000000000	
        0.5958646230	       10.7920449180	      138.6178259373	        8.4123852936	        0.4094503120	        0.0000000000	        0.0168027683	      -78.5827863019	      663.5477961865	        7.5076995188	        0.8828662616	        0.0000000000	       -0.0361841210	        0.0000000000	        0.0000000000	        0.0000000000	        0.0000000000	        0.0000000000	        0.0000000000	
        0.6068991531	        1.5742039258	      110.8956707739	       10.0797981652	        0.4089185343	        0.0000000000	        0.0172532264	     -104.6522586100	      804.6791944818	       12.9850468164	        0.8889890077	        0.0000000000	       -0.0379554814	        0.0000000000	        0.0000000000	        0.0000000000	        0.0000000000	        0.0000000000	        0.0000000000	
        0.6179336831	       -2.4621144573	       73.3466854441	        9.3767416675	        0.4093594471	        0.0000000000	        0.0173122620	     -113.4321291516	      861.4312383399	       14.2533663426	        0.8930544227	        0.0000000000	       -0.0390021021	        0.0000000000	        0.0000000000	        0.0000000000	        0.0000000000	        0.0000000000	        0.0000000000	
        0.6289682132	       -8.5536554559	       30.4418715447	        5.4042652844	        0.4089802494	        0.0000000000	        0.0172432361	     -110.3421502931	      862.8017875514	       14.1945395209	        0.8961927572	        0.0000000000	       -0.0396047954	        0.0000000000	        0.0000000000	        0.0000000000	        0.0000000000	        0.0000000000	        0.0000000000	
        0.6400027433	        0.1223645344	       -0.1229743672	       -0.0033746140	        0.0000000000	        0.0000000000	        0.0000000000	     -101.3778123575	      842.7082582128	       14.3313808891	        0.8993360819	        0.0000000000	       -0.0399021115	        0.0000000000	        0.0000000000	        0.0000000000	        0.0000000000	        0.0000000000	        0.0000000000	
        0.6510372733	        0.0001427934	       -0.0001180942	        0.0000077713	        0.0000000000	        0.0000000000	        0.0000000000	      -89.0472197634	      809.4351334067	       14.9665949308	        0.9026097320	        0.0000000000	       -0.0400142474	        0.0000000000	        0.0000000000	        0.0000000000	        0.0000000000	        0.0000000000	        0.0000000000	
        0.6620718034	        0.0000450029	       -0.0000323476	        0.0000033177	        0.0000000000	        0.0000000000	        0.0000000000	      -77.3537190423	      771.8158704614	       15.3603570419	        0.9063168292	        0.0000000000	       -0.0400351363	        0.0000000000	        0.0000000000	        0.0000000000	        0.0000000000	        0.0000000000	        0.0000000000	
        0.6731063334	        0.0003777130	       -0.0002432109	        0.0000313274	        0.0000000000	        0.0000000000	        0.0000000000	      -67.3474711299	      737.5486792765	       15.4638103139	        0.9105786598	        0.0000000000	       -0.0399403240	        0.0000000000	        0.0000000000	        0.0000000000	        0.0000000000	        0.0000000000	        0.0000000000	
        0.6841408635	        0.0055953092	       -0.0033005435	        0.0004940983	        0.0000000000	        0.0000000000	        0.0000000000	      -57.4517187802	      704.4250909765	       15.9263312758	        0.9147989568	        0.0000000000	       -0.0398390551	        0.0000000000	        0.0000000000	        0.0000000000	        0.0000000000	        0.0000000000	        0.0000000000	
        0.6951753935	       -0.0246158803	        0.0135063764	       -0.0022671299	        0.0000000000	        0.0000000000	        0.0000000000	      -47.7644254772	      673.1436309332	       16.4429122194	        0.9188357087	        0.0000000000	       -0.0397996305	        0.0000000000	        0.0000000000	        0.0000000000	        0.0000000000	        0.0000000000	        0.0000000000	
        0.7062099236	       -0.0175861030	        0.0090724458	       -0.0016751007	        0.0000000000	        0.0000000000	        0.0000000000	      -39.0381299314	      646.0001786249	       16.9710481025	        0.9229078938	        0.0000000000	       -0.0398166978	        0.0000000000	        0.0000000000	        0.0000000000	        0.0000000000	        0.0000000000	        0.0000000000	
        0.7172444537	       -0.0119124622	        0.0058292949	       -0.0011678146	        0.0000000000	        0.0000000000	        0.0000000000	      -31.9634094662	      623.7225503282	       17.6725028464	        0.9271277574	        0.0000000000	       -0.0398628780	        0.0000000000	        0.0000000000	        0.0000000000	        0.0000000000	        0.0000000000	        0.0000000000	
        0.7282789837	       -0.0102760766	        0.0048057579	       -0.0010296271	        0.0000000000	        0.0000000000	        0.0000000000	      -26.1175458160	      606.2088655215	       18.2814277867	        0.9314289535	        0.0000000000	       -0.0399226623	        0.0000000000	        0.0000000000	        0.0000000000	        0.0000000000	        0.0000000000	        0.0000000000	
        0.7393135138	       -0.0118798999	        0.0053401126	       -0.0012122130	        0.0000000000	        0.0000000000	        0.0000000000	      -21.1904689743	      593.5098850808	       18.7059885482	        0.9360808208	        0.0000000000	       -0.0399733305	        0.0000000000	        0.0000000000	        0.0000000000	        0.0000000000	        0.0000000000	        0.0000000000	
        0.7503480438	       -0.0178922586	        0.0077681543	       -0.0018478971	        0.0000000000	        0.0000000000	        0.0000000000	      -17.7454347402	      585.3972802272	       18.8066895895	        0.9411418292	        0.0000000000	       -0.0399902333	        0.0000000000	        0.0000000000	        0.0000000000	        0.0000000000	        0.0000000000	        0.0000000000	
        0.7613825739	       -0.0328931913	        0.0138535119	       -0.0034152194	        0.0000000000	        0.0000000000	        0.0000000000	      -15.5521767995	      581.4861755777	       18.7892269303	        0.9466236887	        0.0000000000	       -0.0399511059	        0.0000000000	        0.0000000000	        0.0000000000	        0.0000000000	        0.0000000000	        0.0000000000	
